<?xml version="1.0" standalone="no"?>
<!DOCTYPE svg PUBLIC "-//W3C//DTD SVG 20010904//EN"
 "http://www.w3.org/TR/2001/REC-SVG-20010904/DTD/svg10.dtd">
<svg version="1.0" xmlns="http://www.w3.org/2000/svg"
 width="250.000000pt" height="251.000000pt" viewBox="0 0 250.000000 251.000000"
 preserveAspectRatio="xMidYMid meet">
<metadata>
Created by potrace 1.16, written by Peter Selinger 2001-2019
</metadata>
<g transform="translate(0.000000,251.000000) scale(0.100000,-0.100000)"
fill="#000000" stroke="none">
<path d="M400 1000 l0 -820 160 0 160 0 0 820 0 820 -160 0 -160 0 0 -820z"/>
<path d="M850 1000 l0 -820 160 0 160 0 0 283 1 282 83 88 82 89 224 -359
c122 -197 228 -364 235 -371 8 -9 58 -12 203 -10 l192 3 -176 280 c-97 154
-237 376 -311 494 l-135 214 49 51 c166 172 553 586 553 591 0 3 -93 5 -207 5
l-208 0 -290 -330 -290 -330 -3 330 -2 330 -160 0 -160 0 0 -820z"/>
</g>
</svg>
